<svg width="12" height="12" viewBox="0 0 12 12" fill="none" xmlns="http://www.w3.org/2000/svg">
<path d="M8.4723 0.0289886C8.58947 0.0782002 8.67383 0.183654 8.69727 0.307855L9.1636 2.8364L11.6921 3.30039C11.8163 3.32382 11.9218 3.40819 11.971 3.52536C12.0202 3.64253 12.0062 3.7761 11.9335 3.88156L10.4736 6L11.9335 8.1161C12.0062 8.22155 12.0202 8.35513 11.971 8.4723C11.9218 8.58947 11.8163 8.67383 11.6921 8.69727L9.1636 9.1636L8.69727 11.6921C8.67383 11.8163 8.58947 11.9218 8.4723 11.971C8.35513 12.0202 8.22155 12.0062 8.1161 11.9335L6 10.4736L3.8839 11.9335C3.77845 12.0062 3.64487 12.0202 3.5277 11.971C3.41053 11.9218 3.32617 11.8163 3.30273 11.6921L2.8364 9.1636L0.307855 8.69727C0.183654 8.67383 0.0782002 8.58947 0.0289886 8.4723C-0.0202231 8.35513 -0.0061626 8.22155 0.0664831 8.1161L1.52643 6L0.0664831 3.8839C-0.0061626 3.77845 -0.0202231 3.64487 0.0289886 3.5277C0.0782002 3.41053 0.183654 3.32617 0.307855 3.30273L2.8364 2.8364L3.30273 0.307855C3.32617 0.183654 3.41053 0.0782002 3.5277 0.0289886C3.64487 -0.0202231 3.77845 -0.0061626 3.8839 0.0664831L6 1.52643L8.1161 0.0664831C8.22155 -0.0061626 8.35513 -0.0202231 8.4723 0.0289886ZM3.75033 6C3.75033 5.40335 3.98734 4.83114 4.40924 4.40924C4.83114 3.98734 5.40335 3.75033 6 3.75033C6.59665 3.75033 7.16886 3.98734 7.59076 4.40924C8.01266 4.83114 8.24967 5.40335 8.24967 6C8.24967 6.59665 8.01266 7.16886 7.59076 7.59076C7.16886 8.01266 6.59665 8.24967 6 8.24967C5.40335 8.24967 4.83114 8.01266 4.40924 7.59076C3.98734 7.16886 3.75033 6.59665 3.75033 6ZM8.99957 6C8.99957 5.20447 8.68354 4.44151 8.12101 3.87899C7.55849 3.31646 6.79553 3.00043 6 3.00043C5.20447 3.00043 4.44151 3.31646 3.87899 3.87899C3.31646 4.44151 3.00043 5.20447 3.00043 6C3.00043 6.79553 3.31646 7.55849 3.87899 8.12101C4.44151 8.68354 5.20447 8.99957 6 8.99957C6.79553 8.99957 7.55849 8.68354 8.12101 8.12101C8.68354 7.55849 8.99957 6.79553 8.99957 6Z" fill="white"/>
</svg>
